<mxfile host="app.diagrams.net" modified="2023-06-06T16:58:56.846Z" agent="Mozilla/5.0 (Windows NT 10.0; Win64; x64) AppleWebKit/537.36 (KHTML, like Gecko) Chrome/114.0.0.0 Safari/537.36" etag="m0XxY-zBFt-U7yunNeEc" version="21.2.9" type="github">
  <diagram id="wFE0QG_FPsp0jaGvCLVb" name="Page-1">
    <mxGraphModel dx="819" dy="450" grid="1" gridSize="10" guides="1" tooltips="1" connect="1" arrows="1" fold="1" page="1" pageScale="1" pageWidth="850" pageHeight="1100" math="0" shadow="0">
      <root>
        <mxCell id="0" />
        <mxCell id="1" parent="0" />
        <mxCell id="_5mSTuPxr-ZiKRkBDSY7-1" value="" style="swimlane;fontStyle=2;childLayout=stackLayout;horizontal=1;startSize=28;horizontalStack=1;resizeParent=1;resizeParentMax=0;resizeLast=0;collapsible=0;marginBottom=0;swimlaneFillColor=none;fontFamily=Comic Sans MS;fontSize=16;points=[];verticalAlign=top;stackBorder=0;resizable=1;strokeWidth=2;sketch=1;disableMultiStroke=1;" parent="1" vertex="1">
          <mxGeometry x="160" y="80" width="540" height="640" as="geometry" />
        </mxCell>
        <object label="TO DO" status="New" id="_5mSTuPxr-ZiKRkBDSY7-2">
          <mxCell style="swimlane;strokeWidth=2;fontFamily=Comic Sans MS;html=0;startSize=1;verticalAlign=bottom;spacingBottom=5;points=[];childLayout=stackLayout;stackBorder=20;stackSpacing=20;resizeLast=0;resizeParent=1;horizontalStack=0;collapsible=0;sketch=1;strokeColor=none;fillStyle=solid;fillColor=#A0522D;" parent="_5mSTuPxr-ZiKRkBDSY7-1" vertex="1">
            <mxGeometry y="28" width="180" height="612" as="geometry" />
          </mxCell>
        </object>
        <object label="&lt;u&gt;DASHBOARD&lt;br&gt;&lt;/u&gt;Halaman Ubah Profil&lt;br&gt;&lt;span style=&quot;font-weight: normal&quot;&gt;&lt;i&gt;&lt;font style=&quot;font-size: 10px&quot;&gt;%status%&lt;/font&gt;&lt;/i&gt;&lt;/span&gt;" placeholders="1" id="_5mSTuPxr-ZiKRkBDSY7-3">
          <mxCell style="whiteSpace=wrap;html=1;strokeWidth=2;fillColor=#f8cecc;fontStyle=1;spacingTop=0;rounded=1;arcSize=9;points=[];sketch=1;fontFamily=Comic Sans MS;hachureGap=8;fillWeight=1;strokeColor=#b85450;" parent="_5mSTuPxr-ZiKRkBDSY7-2" vertex="1">
            <mxGeometry x="20" y="21" width="140" height="80" as="geometry" />
          </mxCell>
        </object>
        <object label="&lt;u style=&quot;border-color: var(--border-color);&quot;&gt;DASHBOARD&lt;/u&gt;&lt;br style=&quot;border-color: var(--border-color);&quot;&gt;Halaman Manajemen Pengguna / Admin&lt;br&gt;&lt;span style=&quot;font-weight: normal&quot;&gt;&lt;i&gt;&lt;font style=&quot;font-size: 10px&quot;&gt;%status%&lt;/font&gt;&lt;/i&gt;&lt;/span&gt;" placeholders="1" id="_5mSTuPxr-ZiKRkBDSY7-4">
          <mxCell style="whiteSpace=wrap;html=1;strokeWidth=2;fillColor=#f8cecc;fontStyle=1;spacingTop=0;rounded=1;arcSize=9;points=[];sketch=1;fontFamily=Comic Sans MS;hachureGap=8;fillWeight=1;strokeColor=#b85450;" parent="_5mSTuPxr-ZiKRkBDSY7-2" vertex="1">
            <mxGeometry x="20" y="121" width="140" height="80" as="geometry" />
          </mxCell>
        </object>
        <object label="&lt;u style=&quot;border-color: var(--border-color);&quot;&gt;AUTOMATION&lt;br style=&quot;border-color: var(--border-color);&quot;&gt;&lt;/u&gt;Migrasi automa ke&amp;nbsp;playwright / puppeteer&lt;br style=&quot;border-color: var(--border-color);&quot;&gt;&lt;i style=&quot;border-color: var(--border-color);&quot;&gt;&lt;font style=&quot;border-color: var(--border-color); font-size: 10px;&quot;&gt;%status%&lt;/font&gt;&lt;/i&gt;" placeholders="1" id="JEs3SaMyyG1makl6HQT--11">
          <mxCell style="whiteSpace=wrap;html=1;strokeWidth=2;fillColor=#f8cecc;fontStyle=1;spacingTop=0;rounded=1;arcSize=9;points=[];sketch=1;fontFamily=Comic Sans MS;hachureGap=8;fillWeight=1;strokeColor=#b85450;" vertex="1" parent="_5mSTuPxr-ZiKRkBDSY7-2">
            <mxGeometry x="20" y="221" width="140" height="80" as="geometry" />
          </mxCell>
        </object>
        <object label="DOING" status="In progress" id="_5mSTuPxr-ZiKRkBDSY7-6">
          <mxCell style="swimlane;strokeWidth=2;fontFamily=Comic Sans MS;html=0;startSize=1;verticalAlign=bottom;spacingBottom=5;points=[];childLayout=stackLayout;stackBorder=20;stackSpacing=20;resizeLast=0;resizeParent=1;horizontalStack=0;collapsible=0;sketch=1;strokeColor=none;fillStyle=solid;fillColor=#006600;" parent="_5mSTuPxr-ZiKRkBDSY7-1" vertex="1">
            <mxGeometry x="180" y="28" width="180" height="612" as="geometry" />
          </mxCell>
        </object>
        <object label="&lt;u style=&quot;border-color: var(--border-color);&quot;&gt;DASHBOARD&lt;/u&gt;&lt;br style=&quot;border-color: var(--border-color);&quot;&gt;Halaman Manajemen Master Data Kategori Laporan&lt;br&gt;&lt;span style=&quot;font-weight: normal&quot;&gt;&lt;i&gt;&lt;font style=&quot;font-size: 10px&quot;&gt;%status%&lt;/font&gt;&lt;/i&gt;&lt;/span&gt;" placeholders="1" id="_5mSTuPxr-ZiKRkBDSY7-7">
          <mxCell style="whiteSpace=wrap;html=1;strokeWidth=2;fillColor=#d5e8d4;fontStyle=1;spacingTop=0;rounded=1;arcSize=9;points=[];sketch=1;fontFamily=Comic Sans MS;hachureGap=8;fillWeight=1;strokeColor=#82b366;" parent="_5mSTuPxr-ZiKRkBDSY7-6" vertex="1">
            <mxGeometry x="20" y="21" width="140" height="80" as="geometry" />
          </mxCell>
        </object>
        <object label="&lt;u style=&quot;border-color: var(--border-color);&quot;&gt;DASHBOARD&lt;/u&gt;&lt;br style=&quot;border-color: var(--border-color);&quot;&gt;Halaman Manajemen Master Data Jenis Laporan&lt;br&gt;&lt;span style=&quot;font-weight: normal&quot;&gt;&lt;i&gt;&lt;font style=&quot;font-size: 10px&quot;&gt;%status%&lt;/font&gt;&lt;/i&gt;&lt;/span&gt;" placeholders="1" id="_5mSTuPxr-ZiKRkBDSY7-8">
          <mxCell style="whiteSpace=wrap;html=1;strokeWidth=2;fillColor=#d5e8d4;fontStyle=1;spacingTop=0;rounded=1;arcSize=9;points=[];sketch=1;fontFamily=Comic Sans MS;hachureGap=8;fillWeight=1;strokeColor=#82b366;" parent="_5mSTuPxr-ZiKRkBDSY7-6" vertex="1">
            <mxGeometry x="20" y="121" width="140" height="80" as="geometry" />
          </mxCell>
        </object>
        <object label="&lt;u style=&quot;border-color: var(--border-color);&quot;&gt;DASHBOARD&lt;/u&gt;&lt;br style=&quot;border-color: var(--border-color);&quot;&gt;Halaman Manajemen Master Data Keyword&lt;br&gt;&lt;span style=&quot;font-weight: normal&quot;&gt;&lt;i&gt;&lt;font style=&quot;font-size: 10px&quot;&gt;%status%&lt;/font&gt;&lt;/i&gt;&lt;/span&gt;" placeholders="1" id="JEs3SaMyyG1makl6HQT--7">
          <mxCell style="whiteSpace=wrap;html=1;strokeWidth=2;fillColor=#d5e8d4;fontStyle=1;spacingTop=0;rounded=1;arcSize=9;points=[];sketch=1;fontFamily=Comic Sans MS;hachureGap=8;fillWeight=1;strokeColor=#82b366;" vertex="1" parent="_5mSTuPxr-ZiKRkBDSY7-6">
            <mxGeometry x="20" y="221" width="140" height="80" as="geometry" />
          </mxCell>
        </object>
        <object label="&lt;u style=&quot;border-color: var(--border-color);&quot;&gt;DASHBOARD&lt;/u&gt;&lt;br style=&quot;border-color: var(--border-color);&quot;&gt;Fitur Pencarian&lt;br&gt;&lt;span style=&quot;font-weight: normal&quot;&gt;&lt;i&gt;&lt;font style=&quot;font-size: 10px&quot;&gt;%status%&lt;/font&gt;&lt;/i&gt;&lt;/span&gt;" placeholders="1" id="JEs3SaMyyG1makl6HQT--10">
          <mxCell style="whiteSpace=wrap;html=1;strokeWidth=2;fillColor=#d5e8d4;fontStyle=1;spacingTop=0;rounded=1;arcSize=9;points=[];sketch=1;fontFamily=Comic Sans MS;hachureGap=8;fillWeight=1;strokeColor=#82b366;" vertex="1" parent="_5mSTuPxr-ZiKRkBDSY7-6">
            <mxGeometry x="20" y="321" width="140" height="80" as="geometry" />
          </mxCell>
        </object>
        <object label="DONE" status="Completed" id="_5mSTuPxr-ZiKRkBDSY7-9">
          <mxCell style="swimlane;strokeWidth=2;fontFamily=Comic Sans MS;html=0;startSize=1;verticalAlign=bottom;spacingBottom=5;points=[];childLayout=stackLayout;stackBorder=20;stackSpacing=20;resizeLast=0;resizeParent=1;horizontalStack=0;collapsible=0;sketch=1;strokeColor=none;fillStyle=solid;fillColor=#1BA1E2;" parent="_5mSTuPxr-ZiKRkBDSY7-1" vertex="1">
            <mxGeometry x="360" y="28" width="180" height="612" as="geometry" />
          </mxCell>
        </object>
        <object label="&lt;u&gt;AUTOMATION&lt;/u&gt;&lt;br&gt;Komentar Instagram&lt;br&gt;&lt;span style=&quot;font-weight: normal&quot;&gt;&lt;i&gt;&lt;font style=&quot;font-size: 10px&quot;&gt;%status%&lt;/font&gt;&lt;/i&gt;&lt;/span&gt;" placeholders="1" id="_5mSTuPxr-ZiKRkBDSY7-10">
          <mxCell style="whiteSpace=wrap;html=1;strokeWidth=2;fillColor=#dae8fc;fontStyle=1;spacingTop=0;rounded=1;arcSize=9;points=[];sketch=1;fontFamily=Comic Sans MS;hachureGap=8;fillWeight=1;strokeColor=#6c8ebf;" parent="_5mSTuPxr-ZiKRkBDSY7-9" vertex="1">
            <mxGeometry x="20" y="21" width="140" height="80" as="geometry" />
          </mxCell>
        </object>
        <object label="&lt;u&gt;DASHBOARD&lt;/u&gt;&lt;br&gt;Halaman Login&lt;br&gt;&lt;span style=&quot;font-weight: normal&quot;&gt;&lt;i&gt;&lt;font style=&quot;font-size: 10px&quot;&gt;%status%&lt;/font&gt;&lt;/i&gt;&lt;/span&gt;" placeholders="1" id="_5mSTuPxr-ZiKRkBDSY7-11">
          <mxCell style="whiteSpace=wrap;html=1;strokeWidth=2;fillColor=#dae8fc;fontStyle=1;spacingTop=0;rounded=1;arcSize=9;points=[];sketch=1;fontFamily=Comic Sans MS;hachureGap=8;fillWeight=1;strokeColor=#6c8ebf;" parent="_5mSTuPxr-ZiKRkBDSY7-9" vertex="1">
            <mxGeometry x="20" y="121" width="140" height="80" as="geometry" />
          </mxCell>
        </object>
        <object label="&lt;u&gt;DASHBOARD&lt;/u&gt;&lt;br&gt;Halaman Utama&lt;br&gt;&lt;span style=&quot;font-weight: normal&quot;&gt;&lt;i&gt;&lt;font style=&quot;font-size: 10px&quot;&gt;%status%&lt;/font&gt;&lt;/i&gt;&lt;/span&gt;" placeholders="1" id="_5mSTuPxr-ZiKRkBDSY7-12">
          <mxCell style="whiteSpace=wrap;html=1;strokeWidth=2;fillColor=#dae8fc;fontStyle=1;spacingTop=0;rounded=1;arcSize=9;points=[];sketch=1;fontFamily=Comic Sans MS;hachureGap=8;fillWeight=1;strokeColor=#6c8ebf;" parent="_5mSTuPxr-ZiKRkBDSY7-9" vertex="1">
            <mxGeometry x="20" y="221" width="140" height="80" as="geometry" />
          </mxCell>
        </object>
        <object label="&lt;u&gt;DASHBOARD&lt;/u&gt;&lt;br&gt;Halaman Daftar Laporan&lt;br&gt;&lt;span style=&quot;font-weight: normal&quot;&gt;&lt;i&gt;&lt;font style=&quot;font-size: 10px&quot;&gt;%status%&lt;/font&gt;&lt;/i&gt;&lt;/span&gt;" placeholders="1" id="JEs3SaMyyG1makl6HQT--5">
          <mxCell style="whiteSpace=wrap;html=1;strokeWidth=2;fillColor=#dae8fc;fontStyle=1;spacingTop=0;rounded=1;arcSize=9;points=[];sketch=1;fontFamily=Comic Sans MS;hachureGap=8;fillWeight=1;strokeColor=#6c8ebf;" vertex="1" parent="_5mSTuPxr-ZiKRkBDSY7-9">
            <mxGeometry x="20" y="321" width="140" height="80" as="geometry" />
          </mxCell>
        </object>
        <object label="&lt;u&gt;DASHBOARD&lt;/u&gt;&lt;br&gt;Responsive (tampilan ponsel, tablet, desktop)&lt;br&gt;&lt;span style=&quot;font-weight: normal&quot;&gt;&lt;i&gt;&lt;font style=&quot;font-size: 10px&quot;&gt;%status%&lt;/font&gt;&lt;/i&gt;&lt;/span&gt;" placeholders="1" id="JEs3SaMyyG1makl6HQT--6">
          <mxCell style="whiteSpace=wrap;html=1;strokeWidth=2;fillColor=#dae8fc;fontStyle=1;spacingTop=0;rounded=1;arcSize=9;points=[];sketch=1;fontFamily=Comic Sans MS;hachureGap=8;fillWeight=1;strokeColor=#6c8ebf;" vertex="1" parent="_5mSTuPxr-ZiKRkBDSY7-9">
            <mxGeometry x="20" y="421" width="140" height="80" as="geometry" />
          </mxCell>
        </object>
        <object label="&lt;u&gt;BOT WHATSAPP&lt;/u&gt;&lt;br&gt;Notifikasi Aduan&lt;br&gt;&lt;span style=&quot;font-weight: normal&quot;&gt;&lt;i&gt;&lt;font style=&quot;font-size: 10px&quot;&gt;%status%&lt;/font&gt;&lt;/i&gt;&lt;/span&gt;" placeholders="1" id="JEs3SaMyyG1makl6HQT--9">
          <mxCell style="whiteSpace=wrap;html=1;strokeWidth=2;fillColor=#dae8fc;fontStyle=1;spacingTop=0;rounded=1;arcSize=9;points=[];sketch=1;fontFamily=Comic Sans MS;hachureGap=8;fillWeight=1;strokeColor=#6c8ebf;" vertex="1" parent="_5mSTuPxr-ZiKRkBDSY7-9">
            <mxGeometry x="20" y="521" width="140" height="80" as="geometry" />
          </mxCell>
        </object>
      </root>
    </mxGraphModel>
  </diagram>
</mxfile>
